<svg width="76" height="87" viewBox="0 0 76 87" fill="none" xmlns="http://www.w3.org/2000/svg">
<path d="M9.44075e-05 73.7363C9.44075e-05 73.7363 15.0241 51.7537 15.9414 49.183C15.9414 49.183 22.9161 29.3377 28.6081 26.2297C28.6081 26.2297 43.5374 13.5137 46.7187 12.6564C46.7187 12.6564 50.7561 6.29369 54.0614 6.53769C54.0614 6.53769 55.2854 6.90435 54.9161 9.59768C54.9161 9.59768 62.7481 1.76436 65.6854 0.908361C65.6854 0.908361 67.5214 1.03236 68.1334 2.99103C68.1334 2.99103 71.0707 -0.438316 73.2734 2.13102C73.2734 2.13102 75.5974 4.94968 72.4147 7.14835C72.4147 7.14835 75.2974 7.51635 75.1414 9.23102C75.1414 9.23102 74.9854 15.9604 72.5387 18.775C72.5387 18.775 68.5001 26.6843 64.4614 28.8483C64.4614 28.8483 59.8121 36.6417 55.8961 38.8457C55.8961 38.8457 49.9014 45.6964 50.8801 52.7937C50.8801 52.7937 51.4907 57.0763 56.3867 55.8523C56.3867 55.8523 62.7481 54.019 63.3614 53.895C63.3614 53.895 69.1134 48.6337 74.4961 51.6924C74.4961 51.6924 76.9427 53.7737 70.0907 58.5457C70.0907 58.5457 67.3988 64.4177 63.2374 64.7857C63.2374 64.7857 51.2454 69.0697 49.5334 69.3137C49.5334 69.3137 36.1934 69.7043 32.7681 72.0163C32.7681 72.0163 24.0801 80.3483 24.3254 86.1497L9.44075e-05 73.7363" fill="#EEAC6D"/>
<path d="M72.4147 7.14835C72.4147 7.14835 69.8161 9.53635 69.7241 10.4537C69.7241 10.4537 66.3734 13.0217 65.8681 14.767C65.8681 14.767 61.5547 19.1737 61.0961 19.311C61.0961 19.311 55.5881 23.1217 55.2227 24.2657C55.2227 24.2657 49.4867 30.2323 47.7414 31.699L46.0001 32.0697C46.0001 32.0697 54.4427 24.5884 54.8547 23.807C54.8547 23.807 58.1134 20.2284 61.1427 18.623L65.6854 14.4017C65.6854 14.4017 66.8774 11.6004 69.4934 9.90302C69.4934 9.90302 70.2441 8.15768 72.4147 7.14835" fill="#D89761"/>
<path d="M39.9868 26.6684C39.9868 26.6684 50.7561 18.0404 53.6921 16.4524C53.6921 16.4524 61.1588 9.78169 63.5428 8.68036C63.5428 8.68036 67.7708 3.36304 68.1334 2.99104C68.4961 2.61637 70.0148 1.46037 70.4601 1.3417C70.9054 1.22304 65.4401 6.35503 64.0934 9.17103C64.0934 9.17103 54.2428 16.8164 53.0188 17.795L39.1908 28.5044C39.9268 27.955 39.9868 26.6684 39.9868 26.6684" fill="#D89761"/>
<path d="M32.4015 25.7257C32.4015 25.7257 40.7548 21.4457 43.1001 18.7724C43.1001 18.7724 47.2881 15.3764 48.6375 14.6524C48.6375 14.6524 54.4508 10.1964 54.9788 9.68302C54.9788 9.68302 50.2054 14.3683 48.4921 15.531C48.4921 15.531 42.9241 19.1417 41.7614 20.7937C41.7614 20.7937 35.1215 26.1284 32.4015 25.7257" fill="#D89761"/>
<path d="M54.3988 56.0617C54.3988 56.0617 59.7508 55.119 63.3615 53.895C63.3615 53.895 68.2415 48.9417 74.1215 51.4964C74.1215 51.4964 64.8588 53.6684 63.9414 56.0617C63.9414 56.0617 57.3335 60.8404 52.2868 58.6364C52.2868 58.6364 46.4015 53.9057 51.1788 47.9204C51.1788 47.9204 49.5335 55.4124 54.3988 56.0617" fill="#D89761"/>
<path d="M47.7414 31.699C47.7414 31.699 55.3454 25.015 56.0174 24.4044C56.0174 24.4044 60.7294 20.3217 61.6467 19.6084C61.6467 19.6084 65.5627 15.531 65.9307 15.4697C65.9307 15.4697 68.3147 11.863 69.8467 11.0044C69.8467 11.0044 71.9694 7.49502 72.4147 7.14835C72.4147 7.14835 69.9067 9.42035 69.7241 10.4537C69.7241 10.4537 66.8094 12.495 65.8681 14.767L61.4201 19.087C61.4201 19.087 55.6361 23.055 55.2227 24.2657L47.7414 31.699" fill="#FFBD7D"/>
<path d="M32.4015 25.7257C32.4015 25.7257 40.5374 21.3764 42.0521 19.6084C42.0521 19.6084 54.2734 10.5217 54.9788 9.68302C54.9788 9.68302 46.8241 15.0897 46.3201 15.7764C46.3201 15.7764 40.2628 20.4604 39.7121 20.6404C39.7121 20.6404 32.6148 25.3497 32.4015 25.7257Z" fill="#FFBD7D"/>
<path d="M9.95566e-05 73.7364C9.95566e-05 73.7364 15.3201 50.879 15.9414 49.183C15.9414 49.183 6.70677 77.1577 7.2681 77.4444C7.82543 77.7284 9.95566e-05 73.7364 9.95566e-05 73.7364" fill="#D89761"/>
</svg>
