<svg width="77" height="86" viewBox="0 0 77 86" fill="none" xmlns="http://www.w3.org/2000/svg">
<path d="M76.1473 72.9196C76.1473 72.9196 61.122 50.9369 60.2033 48.3663C60.2033 48.3663 53.23 28.521 47.5393 25.413C47.5393 25.413 32.61 12.697 29.43 11.8396C29.43 11.8396 25.3913 5.47696 22.086 5.72096C22.086 5.72096 20.862 6.08762 21.2287 8.78095C21.2287 8.78095 13.398 0.947627 10.4607 0.0916271C10.4607 0.0916271 8.62601 0.215627 8.01534 2.17429C8.01534 2.17429 5.078 -1.25505 2.87533 1.31428C2.87533 1.31428 0.55134 4.13295 3.73134 6.33162C3.73134 6.33162 0.84868 6.69962 1.00468 8.41428C1.00468 8.41428 1.162 15.1436 3.61 17.9583C3.61 17.9583 7.64734 25.8676 11.6847 28.0316C11.6847 28.0316 16.3367 35.825 20.2513 38.029C20.2513 38.029 26.2473 44.8796 25.2687 51.977C25.2687 51.977 24.6567 56.2596 19.7607 55.0356C19.7607 55.0356 13.398 53.2023 12.786 53.0783C12.786 53.0783 7.03668 47.817 1.65134 50.8756C1.65134 50.8756 -0.796666 52.957 6.058 57.729C6.058 57.729 8.74867 63.6009 12.9087 63.9689C12.9087 63.9689 24.9007 68.2529 26.614 68.4969C26.614 68.4969 39.9527 68.8876 43.378 71.1996C43.378 71.1996 52.0673 79.5316 51.8233 85.3329L76.1473 72.9196" fill="#EEAC6D"/>
<path d="M3.73135 6.33162C3.73135 6.33162 6.33269 8.71962 6.42336 9.63695C6.42336 9.63695 9.77401 12.205 10.2793 13.9503C10.2793 13.9503 14.5927 18.357 15.0514 18.4943C15.0514 18.4943 20.558 22.3049 20.9247 23.4489C20.9247 23.4489 26.662 29.4156 28.4034 30.8823L30.1487 31.253C30.1487 31.253 21.7047 23.7716 21.2913 22.9903C21.2913 22.9903 18.034 19.4116 15.0047 17.8063L10.4607 13.585C10.4607 13.585 9.26869 10.7836 6.65269 9.08629C6.65269 9.08629 5.90202 7.34095 3.73135 6.33162" fill="#D89761"/>
<path d="M36.1593 25.8516C36.1593 25.8516 25.3913 17.2236 22.454 15.6356C22.454 15.6356 14.99 8.96496 12.6047 7.86362C12.6047 7.86362 8.37665 2.5463 8.01532 2.1743C7.65132 1.79964 6.13266 0.643636 5.68732 0.52497C5.24066 0.406303 10.706 5.5383 12.054 8.3543C12.054 8.3543 21.9033 15.9996 23.1246 16.9783L36.9553 27.6876C36.2207 27.1383 36.1593 25.8516 36.1593 25.8516" fill="#D89761"/>
<path d="M43.746 24.909C43.746 24.909 35.394 20.629 33.0473 17.9556C33.0473 17.9556 28.862 14.5596 27.5086 13.8356C27.5086 13.8356 21.698 9.37962 21.1686 8.86628C21.1686 8.86628 25.9406 13.5516 27.654 14.7143C27.654 14.7143 33.2233 18.325 34.386 19.977C34.386 19.977 41.026 25.3116 43.746 24.909" fill="#D89761"/>
<path d="M21.75 55.245C21.75 55.245 16.3953 54.3023 12.786 53.0783C12.786 53.0783 7.906 48.125 2.026 50.6796C2.026 50.6796 11.2873 52.8516 12.2047 55.245C12.2047 55.245 18.814 60.0236 23.862 57.8196C23.862 57.8196 29.7473 53.089 24.9687 47.1036C24.9687 47.1036 26.614 54.5956 21.75 55.245" fill="#D89761"/>
<path d="M28.4033 30.8823C28.4033 30.8823 20.802 24.1983 20.1273 23.5876C20.1273 23.5876 15.4167 19.505 14.5007 18.7916C14.5007 18.7916 10.5833 14.7143 10.2167 14.653C10.2167 14.653 7.83132 11.0463 6.30199 10.1876C6.30199 10.1876 4.17665 6.67828 3.73132 6.33162C3.73132 6.33162 6.23933 8.60362 6.42333 9.63695C6.42333 9.63695 9.33665 11.6783 10.2793 13.9503L14.7246 18.2703C14.7246 18.2703 20.5086 22.2383 20.9246 23.4489L28.4033 30.8823" fill="#FFBD7D"/>
<path d="M43.746 24.909C43.746 24.909 35.61 20.5596 34.094 18.7916C34.094 18.7916 21.8726 9.70495 21.1686 8.86628C21.1686 8.86628 29.3206 14.273 29.826 14.9596C29.826 14.9596 35.8846 19.6436 36.4353 19.8236C36.4353 19.8236 43.5326 24.533 43.746 24.909" fill="#FFBD7D"/>
<path d="M76.1473 72.9196C76.1473 72.9196 60.8273 50.0623 60.2033 48.3663C60.2033 48.3663 69.4407 76.341 68.8807 76.6276C68.3207 76.9116 76.1473 72.9196 76.1473 72.9196Z" fill="#D89761"/>
</svg>
